<svg width="13" height="26" viewBox="0 0 13 26" fill="none" xmlns="http://www.w3.org/2000/svg">
<path d="M1.58333 26C1.44075 26.0009 1.29942 25.9735 1.16743 25.9196C1.03544 25.8657 0.915388 25.7863 0.814162 25.6859C0.712622 25.5852 0.632029 25.4653 0.577029 25.3333C0.52203 25.2013 0.493713 25.0597 0.493713 24.9167C0.493713 24.7737 0.52203 24.6321 0.577029 24.5001C0.632029 24.3681 0.712622 24.2482 0.814162 24.1475L9.665 15.2967C10.2736 14.6873 10.6155 13.8613 10.6155 13C10.6155 12.1388 10.2736 11.3127 9.665 10.7034L0.814162 1.85254C0.610166 1.64854 0.495562 1.37186 0.495562 1.08337C0.495562 0.794878 0.610166 0.5182 0.814162 0.314205C1.01816 0.110209 1.29483 -0.00439453 1.58333 -0.00439453C1.87182 -0.00439453 2.1485 0.110209 2.3525 0.314205L11.2033 9.16504C11.7078 9.6682 12.108 10.2659 12.381 10.924C12.6541 11.5821 12.7947 12.2876 12.7947 13C12.7947 13.7125 12.6541 14.418 12.381 15.0761C12.108 15.7341 11.7078 16.3319 11.2033 16.835L2.3525 25.6859C2.25127 25.7863 2.13122 25.8657 1.99923 25.9196C1.86724 25.9735 1.7259 26.0009 1.58333 26Z" fill="white"/>
</svg>
