<svg width="20" height="21" viewBox="0 0 20 21" fill="none" xmlns="http://www.w3.org/2000/svg">
<path d="M4.38781 0.0182623C4.58519 0.11176 4.62264 0.175677 4.73875 0.369207C4.73875 0.652302 4.73875 0.935398 4.73875 1.22707C5.51083 1.22707 6.28291 1.22707 7.07839 1.22707C7.07839 0.943977 7.07839 0.660881 7.07839 0.369207C7.26385 0.0910161 7.26385 0.0910161 7.42933 0.0182623C7.64567 -0.0140579 7.83765 -0.009972 8.03617 0.0840644C8.13122 0.174238 8.13122 0.174238 8.2482 0.369207C8.2482 0.652302 8.2482 0.935398 8.2482 1.22707C9.02028 1.22707 9.79236 1.22707 10.5878 1.22707C10.5878 0.943977 10.5878 0.660881 10.5878 0.369207C10.7733 0.0910161 10.7733 0.0910161 10.9388 0.0182623C11.1551 -0.0140579 11.3471 -0.009972 11.5456 0.0840644C11.6407 0.174238 11.6407 0.174238 11.7576 0.369207C11.7576 0.652302 11.7576 0.935398 11.7576 1.22707C12.5297 1.22707 13.3018 1.22707 14.0973 1.22707C14.0973 0.943977 14.0973 0.660881 14.0973 0.369207C14.2827 0.0910161 14.2827 0.0910161 14.4482 0.0182623C14.6646 -0.0140579 14.8565 -0.009972 15.0551 0.0840644C15.1796 0.202237 15.2593 0.288378 15.2764 0.465368C15.2786 0.58057 15.2773 0.695139 15.2744 0.810325C15.2739 0.850362 15.2734 0.890398 15.2728 0.931648C15.2714 1.03014 15.2695 1.1286 15.2671 1.22707C15.3066 1.22673 15.3462 1.22638 15.3869 1.22602C15.7598 1.22286 16.1327 1.22052 16.5057 1.21899C16.6974 1.21818 16.8891 1.21707 17.0808 1.21531C17.2659 1.21361 17.451 1.21268 17.636 1.21227C17.7066 1.21199 17.7771 1.21142 17.8477 1.21058C17.9466 1.20945 18.0456 1.20929 18.1445 1.20936C18.1881 1.20852 18.1881 1.20852 18.2326 1.20767C18.4328 1.20924 18.5467 1.25336 18.6986 1.38305C18.8479 1.5656 18.8314 1.74703 18.829 1.97163C18.829 2.01162 18.8291 2.05161 18.8291 2.09281C18.8291 2.22701 18.8283 2.36119 18.8274 2.49538C18.8273 2.59153 18.8272 2.68767 18.8271 2.78381C18.8269 2.99099 18.8264 3.19816 18.8256 3.40534C18.8244 3.73307 18.8243 4.0608 18.8244 4.38853C18.8244 4.50074 18.8244 4.61295 18.8245 4.72516C18.8245 4.76723 18.8245 4.76723 18.8245 4.81014C18.8245 5.12925 18.8242 5.44837 18.8239 5.76748C18.8238 5.81122 18.8238 5.81122 18.8238 5.85585C18.8233 6.32809 18.822 6.80033 18.8205 7.27256C18.819 7.75784 18.8187 8.24312 18.8194 8.7284C18.8198 9.02747 18.8193 9.3265 18.8174 9.62556C18.8161 9.85504 18.8164 10.0845 18.8172 10.314C18.8173 10.4079 18.8169 10.5018 18.8159 10.5956C18.7929 11.2278 18.7929 11.2278 19.0908 11.7594C19.1158 11.7838 19.1408 11.8082 19.1665 11.8334C19.7471 12.6634 20.0029 13.7001 20 14.6995C19.9999 14.7405 19.9999 14.7405 19.9999 14.7823C19.9983 15.244 19.9568 15.6777 19.8294 16.1227C19.8172 16.1671 19.8172 16.1671 19.8047 16.2124C19.4203 17.577 18.4617 18.696 17.2341 19.3847C16.0573 20.022 14.5691 20.2009 13.2784 19.8271C12.3639 19.5512 11.1121 18.9444 10.6366 18.063C10.5308 17.8795 10.4338 17.7204 10.2238 17.6534C9.93872 17.6056 9.64942 17.6183 9.36154 17.6238C9.2639 17.6238 9.16626 17.6236 9.06862 17.6232C8.85881 17.6228 8.6491 17.6239 8.43931 17.6264C8.13577 17.63 7.83227 17.6307 7.5287 17.6306C7.03579 17.6305 6.54291 17.6326 6.05002 17.6361C5.572 17.6396 5.09399 17.6424 4.61596 17.6441C4.57177 17.6442 4.57177 17.6442 4.52667 17.6444C4.20492 17.6455 3.88317 17.6464 3.56141 17.6471C3.53313 17.6471 3.50485 17.6472 3.47571 17.6472C3.36265 17.6475 3.24958 17.6477 3.13652 17.6479C2.80577 17.6485 2.47503 17.6498 2.14428 17.6523C1.91245 17.6541 1.68061 17.6552 1.44877 17.656C1.35366 17.6565 1.25856 17.6572 1.16346 17.6583C1.03378 17.6597 0.904131 17.6601 0.774444 17.6603C0.736702 17.661 0.69896 17.6616 0.660075 17.6623C0.440858 17.6614 0.307353 17.6403 0.137479 17.4875C0.0214327 17.3305 0.00583023 17.2173 0.00566689 17.0238C0.00548518 16.9971 0.00530343 16.9704 0.00511622 16.9429C0.00464941 16.8533 0.00501699 16.7637 0.0053798 16.6741C0.00521712 16.6093 0.00500358 16.5444 0.00474345 16.4796C0.00417839 16.3013 0.00434588 16.1231 0.00463308 15.9448C0.00481714 15.7526 0.00433005 15.5604 0.00393039 15.3682C0.00325908 14.9916 0.00322764 14.615 0.00343178 14.2383C0.00358922 13.9323 0.00353334 13.6263 0.00332468 13.3202C0.00329549 13.2767 0.00326609 13.2332 0.00323602 13.1884C0.00317631 13.1 0.00311659 13.0115 0.00305633 12.9231C0.00252075 12.0937 0.00273331 11.2643 0.00318039 10.4348C0.00356775 9.67563 0.00306314 8.91644 0.00213022 8.15724C0.00117998 7.3781 0.000804097 6.59897 0.00106368 5.81983C0.00120005 5.38224 0.00111158 4.94465 0.000430007 4.50706C-0.000142984 4.13456 -0.000170083 3.76206 0.000510927 3.38956C0.000843743 3.19943 0.000924111 3.00932 0.000329452 2.8192C-0.000207981 2.64522 -2.80411e-05 2.47126 0.000728697 2.29729C0.000876101 2.23429 0.00075907 2.17128 0.000353847 2.10828C-0.000157388 2.02273 0.00028987 1.93723 0.000977704 1.85168C0.000981889 1.80414 0.000986184 1.7566 0.000990496 1.70761C0.029717 1.51676 0.116498 1.3936 0.263977 1.27177C0.405911 1.21274 0.536012 1.21162 0.687096 1.21379C0.718311 1.21377 0.749527 1.21376 0.781688 1.21374C0.884447 1.21382 0.98718 1.21473 1.08993 1.21565C1.16134 1.21587 1.23275 1.21603 1.30416 1.21615C1.4918 1.2166 1.67943 1.21774 1.86707 1.21904C2.05866 1.22024 2.25025 1.22077 2.44185 1.22136C2.81755 1.22261 3.19324 1.22461 3.56894 1.22707C3.56771 1.18993 3.56771 1.18993 3.56646 1.15204C3.5632 1.03895 3.56119 0.925876 3.55919 0.812762C3.55788 0.773806 3.55658 0.734851 3.55523 0.694714C3.55206 0.45525 3.56384 0.316823 3.72491 0.135244C3.92856 -0.0229271 4.14033 -0.011918 4.38781 0.0182623ZM1.19031 2.39689C1.19031 3.16897 1.19031 3.94104 1.19031 4.73652C6.6206 4.73652 12.0509 4.73652 17.6457 4.73652C17.6457 3.96444 17.6457 3.19236 17.6457 2.39689C16.8608 2.39689 16.0758 2.39689 15.2671 2.39689C15.2542 2.66712 15.2414 2.93734 15.2281 3.21576C15.0872 3.45065 15.0872 3.45065 14.9162 3.52771C14.8016 3.54325 14.8016 3.54325 14.6822 3.54233C14.6428 3.54263 14.6034 3.54294 14.5628 3.54325C14.4293 3.52515 14.3596 3.49298 14.2533 3.41073C14.1363 3.21576 14.1363 3.21576 14.0973 2.39689C13.3252 2.39689 12.5531 2.39689 11.7576 2.39689C11.7448 2.66712 11.7319 2.93734 11.7187 3.21576C11.5777 3.45065 11.5777 3.45065 11.4067 3.52771C11.2922 3.54325 11.2922 3.54325 11.1727 3.54233C11.1333 3.54263 11.0939 3.54294 11.0533 3.54325C10.9199 3.52515 10.8501 3.49298 10.7438 3.41073C10.6268 3.21576 10.6268 3.21576 10.5878 2.39689C9.81575 2.39689 9.04368 2.39689 8.2482 2.39689C8.23533 2.66712 8.22247 2.93734 8.20921 3.21576C8.06827 3.45065 8.06827 3.45065 7.89726 3.52771C7.78271 3.54325 7.78271 3.54325 7.66329 3.54233C7.62389 3.54263 7.58448 3.54294 7.54387 3.54325C7.41043 3.52515 7.34068 3.49298 7.23436 3.41073C7.11738 3.21576 7.11738 3.21576 7.07839 2.39689C6.30631 2.39689 5.53423 2.39689 4.73875 2.39689C4.72589 2.66712 4.71302 2.93734 4.69976 3.21576C4.55882 3.45065 4.55882 3.45065 4.38781 3.52771C4.27326 3.54325 4.27326 3.54325 4.15385 3.54233C4.11444 3.54263 4.07503 3.54294 4.03443 3.54325C3.90098 3.52515 3.83123 3.49298 3.72491 3.41073C3.60793 3.21576 3.60793 3.21576 3.56894 2.39689C2.78399 2.39689 1.99905 2.39689 1.19031 2.39689ZM1.19031 5.90634C1.19031 9.39356 1.19031 12.8808 1.19031 16.4737C4.0084 16.4737 6.82649 16.4737 9.72997 16.4737C9.65276 16.1455 9.65276 16.1455 9.57399 15.8108C9.52769 15.5378 9.52769 15.5378 9.51139 15.4257C9.50426 15.3437 9.50426 15.3437 9.45701 15.3039C9.39844 15.2991 9.33967 15.2969 9.28093 15.2956C9.24499 15.2945 9.20905 15.2934 9.17202 15.2923C9.09617 15.2903 9.02032 15.2885 8.94446 15.2871C8.58788 15.2752 8.58788 15.2752 8.44317 15.1479C8.33263 15.005 8.3102 14.8979 8.31157 14.7189C8.31126 14.6795 8.31096 14.6401 8.31065 14.5995C8.33371 14.4296 8.39357 14.3336 8.52162 14.221C8.69793 14.1484 8.87077 14.1507 9.05976 14.1462C9.09794 14.1449 9.13611 14.1436 9.17545 14.1422C9.2693 14.139 9.36313 14.1363 9.45701 14.134C9.50996 13.9546 9.55526 13.7763 9.59349 13.593C9.63749 13.3831 9.68309 13.1735 9.72997 12.9642C9.69791 12.9637 9.66586 12.9631 9.63284 12.9625C9.48728 12.9596 9.34177 12.9558 9.19624 12.952C9.12058 12.9507 9.12058 12.9507 9.04339 12.9494C8.99475 12.948 8.94612 12.9466 8.89602 12.9452C8.8513 12.9442 8.80658 12.9431 8.7605 12.9421C8.58497 12.9179 8.4814 12.8577 8.37341 12.7181C8.31895 12.5972 8.31055 12.5115 8.31157 12.3793C8.31126 12.3399 8.31096 12.3005 8.31065 12.2599C8.33349 12.0915 8.39041 11.9937 8.52159 11.886C8.68863 11.8106 8.8326 11.8269 9.013 11.8371C9.08735 11.8395 9.16171 11.8418 9.23607 11.8441C9.35269 11.8482 9.46915 11.8529 9.58567 11.8593C10.0331 11.9012 10.0331 11.9012 10.4311 11.7436C10.5102 11.6339 10.5693 11.5266 10.6268 11.4045C10.7387 11.2694 10.8575 11.1421 10.9778 11.0145C11.0012 10.9886 11.0246 10.9627 11.0488 10.9359C11.6829 10.2606 12.5543 9.85373 13.4344 9.61075C13.4609 9.60326 13.4875 9.59577 13.5149 9.58806C14.3228 9.37233 15.3268 9.42117 16.125 9.64975C16.1545 9.6579 16.1841 9.66604 16.2146 9.67444C16.6727 9.80348 17.0761 10.0023 17.4897 10.2347C17.5412 10.2604 17.5927 10.2861 17.6457 10.3126C17.6457 8.85856 17.6457 7.40448 17.6457 5.90634C12.2154 5.90634 6.78515 5.90634 1.19031 5.90634ZM11.9136 11.7554C11.8893 11.7764 11.8651 11.7974 11.8401 11.8191C11.2904 12.3291 10.9221 13.0639 10.7438 13.7831C10.7366 13.8118 10.7293 13.8405 10.7219 13.8701C10.4854 14.91 10.7121 15.9547 11.2459 16.8563C11.3989 17.0952 11.5701 17.3139 11.7576 17.5265C11.7892 17.5629 11.7892 17.5629 11.8213 17.6001C12.3313 18.1498 13.0661 18.518 13.7853 18.6963C13.814 18.7036 13.8427 18.7108 13.8723 18.7182C14.9122 18.9547 15.9569 18.728 16.8585 18.1943C17.0974 18.0413 17.3161 17.87 17.5287 17.6825C17.553 17.6615 17.5773 17.6405 17.6023 17.6188C18.152 17.1088 18.5203 16.374 18.6986 15.6548C18.7058 15.6261 18.713 15.5974 18.7205 15.5678C18.957 14.5279 18.7302 13.4832 18.1965 12.5816C18.0435 12.3427 17.8722 12.124 17.6847 11.9114C17.6637 11.8871 17.6427 11.8628 17.621 11.8378C17.1111 11.2881 16.3762 10.9199 15.657 10.7416C15.6283 10.7343 15.5996 10.7271 15.5701 10.7197C14.2278 10.4144 12.9214 10.8665 11.9136 11.7554Z" fill="#00CCD0"/>
<path d="M14.9552 11.7947C15.1337 11.8793 15.2266 11.9662 15.3061 12.1457C15.3223 12.2971 15.3197 12.4476 15.3176 12.5997C15.3174 12.6436 15.3172 12.6875 15.317 12.7327C15.3164 12.8725 15.3149 13.0123 15.3134 13.1522C15.3129 13.2471 15.3123 13.342 15.3118 13.437C15.3105 13.6694 15.3086 13.9019 15.3061 14.1343C15.3427 14.1338 15.3427 14.1338 15.3801 14.1333C15.6343 14.1298 15.8886 14.1275 16.1429 14.1258C16.2378 14.125 16.3327 14.1239 16.4275 14.1226C16.564 14.1207 16.7004 14.1198 16.8369 14.1191C16.8792 14.1183 16.9215 14.1175 16.9651 14.1167C17.2048 14.1166 17.3472 14.1284 17.5288 14.2903C17.6869 14.494 17.6759 14.7057 17.6458 14.9532C17.5607 15.1327 17.4712 15.2176 17.2948 15.3042C17.1664 15.3193 17.1664 15.3193 17.0187 15.3199C16.9916 15.3202 16.9646 15.3205 16.9367 15.3207C16.8478 15.3214 16.7588 15.3213 16.6698 15.3211C16.6077 15.3212 16.5456 15.3215 16.4835 15.3217C16.3535 15.322 16.2235 15.3219 16.0934 15.3216C15.9271 15.3211 15.7609 15.3219 15.5945 15.323C15.4663 15.3238 15.3381 15.3237 15.2099 15.3235C15.1486 15.3235 15.0873 15.3237 15.026 15.3242C14.9401 15.3248 14.8543 15.3244 14.7684 15.3237C14.7197 15.3237 14.6709 15.3237 14.6207 15.3237C14.4225 15.2947 14.3055 15.2134 14.1812 15.0582C14.1244 14.9254 14.1212 14.8215 14.1206 14.6771C14.1203 14.65 14.12 14.623 14.1197 14.5951C14.119 14.5062 14.1192 14.4172 14.1194 14.3283C14.1192 14.2661 14.119 14.204 14.1188 14.1419C14.1184 14.0119 14.1185 13.8819 14.1189 13.7518C14.1194 13.5855 14.1186 13.4193 14.1174 13.253C14.1167 13.1247 14.1167 12.9965 14.117 12.8683C14.117 12.807 14.1167 12.7457 14.1162 12.6844C14.1157 12.5985 14.1161 12.5127 14.1167 12.4269C14.1168 12.3781 14.1168 12.3293 14.1168 12.2791C14.1454 12.0838 14.2303 11.9599 14.385 11.8397C14.5702 11.7582 14.7572 11.7706 14.9552 11.7947Z" fill="#00CCD0"/>
<path d="M4.28873 14.1163C4.32425 14.1161 4.35977 14.1159 4.39637 14.1157C4.47132 14.1154 4.54628 14.1155 4.62124 14.1158C4.73558 14.1162 4.84985 14.115 4.96419 14.1138C5.03718 14.1137 5.11017 14.1138 5.18315 14.1139C5.21716 14.1134 5.25116 14.113 5.2862 14.1125C5.49954 14.115 5.62229 14.1469 5.79137 14.2892C5.94954 14.4928 5.93853 14.7046 5.90835 14.9521C5.82362 15.131 5.73533 15.22 5.5574 15.303C5.43434 15.3204 5.31246 15.3204 5.18833 15.3199C5.15281 15.3201 5.11729 15.3204 5.08069 15.3206C5.00574 15.3208 4.93078 15.3208 4.85583 15.3204C4.74148 15.3201 4.62721 15.3212 4.51287 15.3225C4.43988 15.3225 4.3669 15.3225 4.29391 15.3224C4.25991 15.3228 4.2259 15.3233 4.19087 15.3237C3.97752 15.3213 3.85478 15.2894 3.6857 15.1471C3.52753 14.9434 3.53854 14.7316 3.56872 14.4842C3.72617 14.1518 3.95234 14.1152 4.28873 14.1163Z" fill="#00CCD0"/>
<path d="M4.28873 11.777C4.32425 11.7768 4.35977 11.7765 4.39637 11.7763C4.47132 11.7761 4.54628 11.7761 4.62124 11.7765C4.73558 11.7768 4.84985 11.7757 4.96419 11.7744C5.03718 11.7744 5.11017 11.7744 5.18315 11.7745C5.21716 11.7741 5.25116 11.7736 5.2862 11.7732C5.49954 11.7756 5.62229 11.8075 5.79137 11.9498C5.94954 12.1535 5.93853 12.3653 5.90835 12.6127C5.82362 12.7916 5.73533 12.8807 5.5574 12.9637C5.43434 12.981 5.31246 12.981 5.18833 12.9806C5.15281 12.9808 5.11729 12.981 5.08069 12.9812C5.00574 12.9815 4.93078 12.9814 4.85583 12.9811C4.74148 12.9807 4.62721 12.9819 4.51287 12.9831C4.43988 12.9832 4.3669 12.9831 4.29391 12.983C4.25991 12.9835 4.2259 12.9839 4.19087 12.9844C3.97752 12.9819 3.85478 12.95 3.6857 12.8077C3.52753 12.6041 3.53854 12.3923 3.56872 12.1448C3.72617 11.8124 3.95234 11.7758 4.28873 11.777Z" fill="#00CCD0"/>
<path d="M9.00834 9.43785C9.04386 9.43764 9.07938 9.43744 9.11597 9.43723C9.19093 9.43698 9.26589 9.43703 9.34084 9.43736C9.45519 9.43769 9.56946 9.43657 9.6838 9.43533C9.75678 9.43527 9.82977 9.43529 9.90276 9.43541C9.93676 9.43497 9.97077 9.43453 10.0058 9.43408C10.2191 9.43651 10.3419 9.4684 10.511 9.61073C10.6691 9.81438 10.6581 10.0261 10.628 10.2736C10.5432 10.4525 10.4549 10.5416 10.277 10.6246C10.1539 10.6419 10.0321 10.6419 9.90794 10.6415C9.87242 10.6417 9.8369 10.6419 9.8003 10.6421C9.72534 10.6423 9.65039 10.6423 9.57543 10.642C9.46108 10.6416 9.34681 10.6428 9.23247 10.644C9.15949 10.6441 9.0865 10.644 9.01351 10.6439C8.97951 10.6444 8.94551 10.6448 8.91047 10.6452C8.69712 10.6428 8.57438 10.6109 8.4053 10.4686C8.24713 10.2649 8.25814 10.0532 8.28832 9.8057C8.44577 9.4733 8.67194 9.43672 9.00834 9.43785Z" fill="#00CCD0"/>
<path d="M4.28873 9.43785C4.32425 9.43764 4.35977 9.43744 4.39637 9.43723C4.47132 9.43698 4.54628 9.43703 4.62124 9.43736C4.73558 9.43769 4.84985 9.43657 4.96419 9.43533C5.03718 9.43527 5.11017 9.43529 5.18315 9.43541C5.21716 9.43497 5.25116 9.43453 5.2862 9.43408C5.49954 9.43651 5.62229 9.4684 5.79137 9.61073C5.94954 9.81438 5.93853 10.0261 5.90835 10.2736C5.82362 10.4525 5.73533 10.5416 5.5574 10.6246C5.43434 10.6419 5.31246 10.6419 5.18833 10.6415C5.15281 10.6417 5.11729 10.6419 5.08069 10.6421C5.00574 10.6423 4.93078 10.6423 4.85583 10.642C4.74148 10.6416 4.62721 10.6428 4.51287 10.644C4.43988 10.6441 4.3669 10.644 4.29391 10.6439C4.25991 10.6444 4.2259 10.6448 4.19087 10.6452C3.97752 10.6428 3.85478 10.6109 3.6857 10.4686C3.52753 10.2649 3.53854 10.0532 3.56872 9.8057C3.72617 9.4733 3.95234 9.43672 4.28873 9.43785Z" fill="#00CCD0"/>
<path d="M13.687 7.09849C13.7225 7.09829 13.758 7.09808 13.7946 7.09787C13.8696 7.09762 13.9445 7.09767 14.0195 7.09801C14.1338 7.09834 14.2481 7.09722 14.3624 7.09598C14.4354 7.09591 14.5084 7.09594 14.5814 7.09605C14.6154 7.09562 14.6494 7.09518 14.6845 7.09473C14.8978 7.09715 15.0205 7.12904 15.1896 7.27137C15.3478 7.47502 15.3368 7.68679 15.3066 7.93427C15.2219 8.11314 15.1336 8.20221 14.9557 8.28521C14.8326 8.30258 14.7107 8.30254 14.5866 8.30212C14.5511 8.30233 14.5155 8.30253 14.4789 8.30274C14.404 8.30299 14.329 8.30294 14.2541 8.30261C14.1397 8.30228 14.0255 8.3034 13.9111 8.30464C13.8381 8.3047 13.7652 8.30468 13.6922 8.30456C13.6582 8.305 13.6242 8.30544 13.5891 8.30589C13.3758 8.30346 13.253 8.27157 13.084 8.12924C12.9258 7.92559 12.9368 7.71382 12.967 7.46634C13.1244 7.13394 13.3506 7.09736 13.687 7.09849Z" fill="#00CCD0"/>
<path d="M9.00834 7.09849C9.04386 7.09829 9.07938 7.09808 9.11597 7.09787C9.19093 7.09762 9.26589 7.09767 9.34084 7.09801C9.45519 7.09834 9.56946 7.09722 9.6838 7.09598C9.75678 7.09591 9.82977 7.09594 9.90276 7.09605C9.93676 7.09562 9.97077 7.09518 10.0058 7.09473C10.2191 7.09715 10.3419 7.12904 10.511 7.27137C10.6691 7.47502 10.6581 7.68679 10.628 7.93427C10.5432 8.11314 10.4549 8.20221 10.277 8.28521C10.1539 8.30258 10.0321 8.30254 9.90794 8.30212C9.87242 8.30233 9.8369 8.30253 9.8003 8.30274C9.72534 8.30299 9.65039 8.30294 9.57543 8.30261C9.46108 8.30228 9.34681 8.3034 9.23247 8.30464C9.15949 8.3047 9.0865 8.30468 9.01351 8.30456C8.97951 8.305 8.94551 8.30544 8.91047 8.30589C8.69712 8.30346 8.57438 8.27157 8.4053 8.12924C8.24713 7.92559 8.25814 7.71382 8.28832 7.46634C8.44577 7.13394 8.67194 7.09736 9.00834 7.09849Z" fill="#00CCD0"/>
<path d="M4.28873 7.09849C4.32425 7.09829 4.35977 7.09808 4.39637 7.09787C4.47132 7.09762 4.54628 7.09767 4.62124 7.09801C4.73558 7.09834 4.84985 7.09722 4.96419 7.09598C5.03718 7.09591 5.11017 7.09594 5.18315 7.09605C5.21716 7.09562 5.25116 7.09518 5.2862 7.09473C5.49954 7.09715 5.62229 7.12904 5.79137 7.27137C5.94954 7.47502 5.93853 7.68679 5.90835 7.93427C5.82362 8.11314 5.73533 8.20221 5.5574 8.28521C5.43434 8.30258 5.31246 8.30254 5.18833 8.30212C5.15281 8.30233 5.11729 8.30253 5.08069 8.30274C5.00574 8.30299 4.93078 8.30294 4.85583 8.30261C4.74148 8.30228 4.62721 8.3034 4.51287 8.30464C4.43988 8.3047 4.3669 8.30468 4.29391 8.30456C4.25991 8.305 4.2259 8.30544 4.19087 8.30589C3.97752 8.30346 3.85478 8.27157 3.6857 8.12924C3.52753 7.92559 3.53854 7.71382 3.56872 7.46634C3.72617 7.13394 3.95234 7.09736 4.28873 7.09849Z" fill="#00CCD0"/>
</svg>
