<svg width="30" height="30" viewBox="0 0 30 30" fill="none" xmlns="http://www.w3.org/2000/svg">
<path d="M23.7221 18.5838C23.107 17.9443 22.3651 17.6024 21.5789 17.6024C20.7989 17.6024 20.0507 17.9379 19.4103 18.5775L17.4065 20.5719C17.2417 20.4833 17.0768 20.401 16.9183 20.3187C16.69 20.2047 16.4744 20.0971 16.2905 19.9831C14.4136 18.7927 12.7079 17.2415 11.072 15.2343C10.2793 14.2339 9.74671 13.3918 9.35991 12.537C9.87987 12.0621 10.3618 11.5682 10.831 11.0934C11.0086 10.9161 11.1861 10.7325 11.3636 10.5552C12.6952 9.22552 12.6952 7.50329 11.3636 6.17364L9.63257 4.44508C9.436 4.2488 9.23309 4.04618 9.04287 3.84357C8.66241 3.451 8.26293 3.04577 7.85077 2.66587C7.2357 2.05802 6.50016 1.73511 5.72657 1.73511C4.95297 1.73511 4.20474 2.05802 3.57065 2.66587C3.56431 2.6722 3.56431 2.6722 3.55797 2.67853L1.40206 4.85031C0.590419 5.66077 0.127531 6.64851 0.0260767 7.79455C-0.126105 9.64341 0.419214 11.3656 0.837715 12.4927C1.86494 15.2596 3.39945 17.824 5.68852 20.5719C8.46584 23.8834 11.8075 26.4984 15.6247 28.3409C17.0832 29.0311 19.0298 29.8479 21.2048 29.9872C21.3379 29.9935 21.4774 29.9999 21.6042 29.9999C23.069 29.9999 24.2991 29.4743 25.2629 28.4296C25.2693 28.4169 25.282 28.4106 25.2883 28.3979C25.618 27.999 25.9985 27.6381 26.398 27.2519C26.6706 26.9923 26.9496 26.72 27.2223 26.4351C27.85 25.7829 28.1798 25.0231 28.1798 24.2443C28.1798 23.4592 27.8437 22.7057 27.2033 22.0726L23.7221 18.5838ZM25.9922 25.2511C25.9858 25.2511 25.9858 25.2574 25.9922 25.2511C25.7449 25.517 25.4912 25.7576 25.2186 26.0235C24.8064 26.4161 24.3879 26.8277 23.9948 27.2899C23.3543 27.9737 22.5998 28.2966 21.6106 28.2966C21.5155 28.2966 21.414 28.2966 21.3189 28.2903C19.4356 28.17 17.6855 27.4355 16.373 26.8087C12.784 25.0738 9.63257 22.6107 7.01377 19.4892C4.85152 16.8869 3.40579 14.4808 2.44831 11.8975C1.8586 10.3209 1.64301 9.09255 1.73813 7.93385C1.80153 7.19304 2.08688 6.57886 2.61317 6.05333L4.77543 3.89422C5.08613 3.60296 5.41586 3.44467 5.73925 3.44467C6.13873 3.44467 6.46211 3.68527 6.66502 3.88789C6.67136 3.89422 6.6777 3.90055 6.68404 3.90688C7.07084 4.26779 7.43861 4.64136 7.82541 5.04026C8.02198 5.24287 8.22489 5.44549 8.4278 5.65443L10.1589 7.38299C10.831 8.05415 10.831 8.67466 10.1589 9.34582C9.97498 9.52944 9.79744 9.71306 9.61355 9.89035C9.08091 10.4349 8.57364 10.9414 8.02198 11.4353C8.0093 11.4479 7.99662 11.4543 7.99027 11.4669C7.44496 12.0115 7.54641 12.5433 7.66055 12.9042C7.66689 12.9232 7.67323 12.9422 7.67957 12.9612C8.12978 14.0503 8.76387 15.076 9.72769 16.298L9.73403 16.3044C11.4841 18.4571 13.3293 20.1351 15.3648 21.4204C15.6247 21.585 15.8911 21.718 16.1447 21.8446C16.373 21.9586 16.5886 22.0662 16.7724 22.1802C16.7978 22.1929 16.8232 22.2119 16.8485 22.2245C17.0641 22.3322 17.267 22.3828 17.4763 22.3828C18.0026 22.3828 18.3323 22.0536 18.4401 21.9459L20.6087 19.7805C20.8243 19.5652 21.1667 19.3056 21.5662 19.3056C21.9593 19.3056 22.2827 19.5525 22.4793 19.7678C22.4856 19.7741 22.4856 19.7741 22.492 19.7805L25.9858 23.2692C26.6389 23.9151 26.6389 24.5799 25.9922 25.2511Z" fill="black"/>
<path d="M16.2145 7.13611C17.8758 7.4147 19.3849 8.19983 20.5897 9.40286C21.7945 10.6059 22.5744 12.1128 22.8597 13.7717C22.9295 14.1896 23.2909 14.4809 23.7031 14.4809C23.7538 14.4809 23.7982 14.4746 23.8489 14.4682C24.3182 14.3922 24.6289 13.949 24.5528 13.4805C24.2104 11.4733 23.2592 9.64346 21.8072 8.1935C20.3551 6.74354 18.5226 5.79379 16.5125 5.45187C16.0433 5.37589 15.6057 5.68615 15.5233 6.14836C15.4409 6.61058 15.7452 7.06013 16.2145 7.13611Z" fill="black"/>
<path d="M29.987 13.2336C29.4226 9.92849 27.8627 6.92093 25.4659 4.52754C23.069 2.13415 20.0571 0.576554 16.7471 0.0130316C16.2842 -0.0692806 15.8467 0.247305 15.7643 0.70952C15.6882 1.17807 15.9989 1.61495 16.4681 1.69727C19.423 2.19747 22.1179 3.59678 24.2611 5.73056C26.4043 7.87068 27.7993 10.5617 28.3003 13.5122C28.37 13.9301 28.7314 14.2214 29.1436 14.2214C29.1943 14.2214 29.2387 14.2151 29.2894 14.2087C29.7523 14.1391 30.0694 13.6959 29.987 13.2336Z" fill="black"/>
</svg>
