<svg width="24" height="24" viewBox="0 0 24 24" fill="none" xmlns="http://www.w3.org/2000/svg">
<path d="M14 3C14 2.448 13.552 2 13 2H3C2.448 2 2 2.448 2 3V22H12V24H0V3C0 1.346 1.346 0 3 0H13C14.654 0 16 1.346 16 3V11.525C14.793 12.439 14 13.872 14 15.5V3ZM7 13H4V15H7V13ZM9 15H12V13H9V15ZM4 19H7V17H4V19ZM9 19H12V17H9V19ZM7 5H4V7H7V5ZM9 7H12V5H9V7ZM7 9H4V11H7V9ZM9 11H12V9H9V11ZM19 18C20.379 18 21.5 16.879 21.5 15.5C21.5 14.121 20.379 13 19 13C17.621 13 16.5 14.121 16.5 15.5C16.5 16.879 17.621 18 19 18ZM21 19H17C15.346 19 14 20.346 14 22V24H16V22C16 21.448 16.448 21 17 21H21C21.552 21 22 21.448 22 22V24H24V22C24 20.346 22.654 19 21 19Z" fill="white"/>
</svg>
