<svg width="668" height="483" viewBox="0 0 668 483" fill="none" xmlns="http://www.w3.org/2000/svg">
<path fill-rule="evenodd" clip-rule="evenodd" d="M267.333 400.333C414.61 400.333 534 310.79 534 200.333C534 89.8766 414.61 0.333252 267.333 0.333252C120.056 0.333252 0.666504 89.8766 0.666504 200.333C0.666504 245.07 20.2513 286.377 53.3413 319.693C39.9267 357.895 22.5472 386.538 11.4982 402.532C7.4515 408.39 11.6188 416.67 18.7147 416.088C47.0753 413.763 102.706 405.508 140.235 376.198C178.018 391.59 221.315 400.333 267.333 400.333Z" fill="white"/>
<path fill-rule="evenodd" clip-rule="evenodd" d="M313.738 430.895C457.388 413.547 567.333 316.928 567.333 200.337C567.333 191.387 566.685 182.555 565.425 173.868C626.557 202.005 667.333 252.6 667.333 310.337C667.333 346.127 651.665 379.172 625.193 405.825C635.133 434.13 647.793 455.875 656.632 469.098C660.588 475.017 656.372 483.298 649.283 482.62C625.735 480.368 584.182 473.288 555.678 451.03C525.453 463.343 490.815 470.337 454 470.337C400.302 470.337 351.238 455.457 313.738 430.895Z" fill="white"/>
</svg>
