<svg width="22" height="18" viewBox="0 0 22 18" fill="none" xmlns="http://www.w3.org/2000/svg">
<path d="M17.875 0H4.125C3.03135 0.00099257 1.98285 0.356891 1.20952 0.989611C0.4362 1.62233 0.00121314 2.4802 0 3.375L0 14.625C0.00121314 15.5198 0.4362 16.3777 1.20952 17.0104C1.98285 17.6431 3.03135 17.999 4.125 18H17.875C18.9686 17.999 20.0172 17.6431 20.7905 17.0104C21.5638 16.3777 21.9988 15.5198 22 14.625V3.375C21.9988 2.4802 21.5638 1.62233 20.7905 0.989611C20.0172 0.356891 18.9686 0.00099257 17.875 0ZM4.125 2.25H17.875C18.2397 2.25 18.5894 2.36853 18.8473 2.5795C19.1051 2.79048 19.25 3.07663 19.25 3.375V14.625C19.2502 14.7727 19.2147 14.9191 19.1455 15.0555C19.0763 15.1919 18.9747 15.3158 18.8467 15.42L10.8423 8.871C10.1547 8.30859 9.22227 7.99264 8.25 7.99264C7.27773 7.99264 6.34527 8.30859 5.65767 8.871L2.75 11.25V3.375C2.75 3.07663 2.89487 2.79048 3.15273 2.5795C3.41059 2.36853 3.76033 2.25 4.125 2.25Z" fill="white"/>
<path d="M14.2084 7.5C15.4741 7.5 16.5001 6.66053 16.5001 5.625C16.5001 4.58947 15.4741 3.75 14.2084 3.75C12.9428 3.75 11.9167 4.58947 11.9167 5.625C11.9167 6.66053 12.9428 7.5 14.2084 7.5Z" fill="white"/>
</svg>
