<svg width="512" height="512" viewBox="0 0 512 512" fill="none" xmlns="http://www.w3.org/2000/svg">
<path d="M255.625 -0.312363C256.643 -0.310208 257.661 -0.308053 258.71 -0.305832C273.319 -0.256161 287.651 -0.00526476 302 3.00014C302.975 3.19881 303.95 3.39749 304.954 3.60219C344.012 11.7723 380.449 27.398 412 52.0001C412.884 52.673 413.769 53.3459 414.68 54.0392C430.267 66.1402 444.892 80.4385 457 96.0001C457.776 96.9592 458.552 97.9183 459.352 98.9064C493.883 142.317 512.439 197.448 512.316 252.727C512.312 255.667 512.336 258.606 512.361 261.545C512.406 274.918 511.2 287.814 509 301C508.718 302.706 508.718 302.706 508.43 304.446C501.404 343.557 484.422 380.74 460 412C459.241 412.972 458.481 413.944 457.699 414.945C445.365 430.325 431.564 444.878 416 457C415.064 457.765 414.128 458.529 413.164 459.317C381.211 484.903 342.045 501.413 302 509C301.191 509.164 300.381 509.328 299.547 509.496C269.506 515.367 234.863 514.273 205 508C203.477 507.687 203.477 507.687 201.923 507.367C164.779 499.475 129.916 483.371 100 460C99.028 459.241 98.056 458.482 97.0546 457.699C81.675 445.365 67.1223 431.564 55 416C53.8533 414.596 53.8533 414.596 52.6835 413.164C27.0967 381.211 10.5869 342.045 2.99995 302C2.83624 301.191 2.67253 300.381 2.50386 299.547C-2.96574 271.561 -2.84482 237.906 2.99995 210C3.19863 209.025 3.39731 208.05 3.602 207.046C13.689 158.825 35.7258 114.225 70.2177 78.8292C71.9919 77.0084 73.7498 75.1726 75.5078 73.3361C82.6093 65.9962 90.0234 59.4269 98.2158 53.3312C100.029 51.9787 101.823 50.6042 103.617 49.2267C112.024 42.84 120.765 37.2984 129.973 32.1393C131.836 31.0925 133.684 30.0233 135.531 28.9494C172.132 8.38224 213.987 -0.470914 255.625 -0.312363ZM272 39.0001C272 67.3801 272 95.7601 272 125C294.77 125 317.54 125 341 125C333.819 103.456 323.603 83.4569 309 66.0001C308.566 65.4808 308.131 64.9615 307.684 64.4264C298.296 53.3373 287.525 44.6174 274 39.0001C273.34 39.0001 272.68 39.0001 272 39.0001ZM217 52.0001C216.223 52.6331 215.445 53.266 214.644 53.9181C202.497 64.2118 193.681 77.1922 186 91.0001C185.482 91.9123 185.482 91.9123 184.954 92.8429C175.493 108.203 175.493 108.203 171 125C193.77 125 216.54 125 240 125C240 96.6201 240 68.2401 240 39.0001C231.878 39.0001 222.897 46.9408 217 52.0001ZM173 48.0001C170.458 48.9005 170.458 48.9005 167.566 50.3244C166.452 50.8522 165.337 51.3801 164.189 51.924C162.979 52.5104 161.771 53.0984 160.562 53.6876C159.953 53.9829 159.345 54.2782 158.717 54.5824C141.219 63.1009 125.725 73.2819 111 86.0001C110.09 86.78 109.18 87.5599 108.242 88.3634C105.779 90.5293 103.38 92.7436 101 95.0001C100.256 95.7028 100.256 95.7028 99.498 96.4196C85.4749 109.132 85.4749 109.132 76 125C95.8 125 115.6 125 136 125C139.3 116.42 142.6 107.84 146 99.0001C153.959 81.4357 162.352 63.7633 175 49.0001C174.01 48.5051 174.01 48.5051 173 48.0001ZM337 48.0001C337.329 48.4874 337.657 48.9747 337.996 49.4767C339.04 51.0331 340.079 52.5936 341.113 54.1564C342.39 56.0811 343.68 57.9976 344.98 59.9064C356.326 76.9347 364.975 95.1681 372.024 114.346C373.332 117.903 374.669 121.451 376 125C395.8 125 415.6 125 436 125C426.517 106.034 406.837 89.516 390 77.0001C389.442 76.5764 388.885 76.1526 388.31 75.716C364.365 57.2164 364.365 57.2164 337 48.0001ZM55 158C48.8655 171.081 48.8655 171.081 43.875 184.5C43.5422 185.515 43.2095 186.53 42.8667 187.575C40.6378 194.565 38.728 201.591 37.125 208.75C36.934 209.586 36.7431 210.422 36.5463 211.283C34.5486 220.839 33.985 230.15 33 240C60.39 240 87.78 240 116 240C116.66 232.41 117.32 224.82 118 217C118.591 211.45 119.2 205.914 119.875 200.375C119.958 199.683 120.041 198.992 120.127 198.279C121.309 188.521 122.755 178.852 124.781 169.228C125.601 165.325 126 162.031 126 158C102.57 158 79.14 158 55 158ZM160 158C155.142 180.692 155.142 180.692 151.687 203.5C151.532 204.72 151.377 205.939 151.217 207.195C149.893 218.169 149.53 228.878 149 240C179.03 240 209.06 240 240 240C240 212.94 240 185.88 240 158C213.6 158 187.2 158 160 158ZM272 158C272 185.06 272 212.12 272 240C302.03 240 332.06 240 363 240C362.139 221.676 362.139 221.676 360.312 203.5C360.176 202.312 360.04 201.123 359.9 199.899C358.127 185.687 354.928 172.155 352 158C325.6 158 299.2 158 272 158ZM386 158C386.601 163.411 387.216 168.65 388.121 173.992C388.333 175.265 388.546 176.537 388.764 177.848C388.875 178.505 388.985 179.163 389.098 179.84C392.439 199.874 394.235 219.709 396 240C423.39 240 450.78 240 479 240C477.587 224.213 477.587 224.213 474.875 208.75C474.665 207.811 474.454 206.872 474.238 205.904C472.541 198.659 470.443 191.569 468.125 184.5C467.822 183.57 467.519 182.641 467.206 181.683C464.373 173.392 460.767 166.073 457 158C433.57 158 410.14 158 386 158ZM33 272C34.4131 287.787 34.4131 287.787 37.125 303.25C37.3352 304.189 37.5455 305.128 37.7622 306.096C39.4584 313.341 41.5571 320.431 43.875 327.5C44.178 328.43 44.4811 329.36 44.7934 330.318C47.6264 338.608 51.2326 345.927 55 354C78.43 354 101.86 354 126 354C125.399 348.589 124.784 343.351 123.879 338.008C123.56 336.099 123.56 336.099 123.236 334.152C123.125 333.495 123.015 332.837 122.902 332.16C119.561 312.127 117.764 292.292 116 272C88.61 272 61.22 272 33 272ZM149 272C149.861 290.324 149.861 290.324 151.687 308.5C151.823 309.689 151.959 310.877 152.1 312.102C153.872 326.314 157.071 339.846 160 354C186.4 354 212.8 354 240 354C240 326.94 240 299.88 240 272C209.97 272 179.94 272 149 272ZM272 272C272 299.06 272 326.12 272 354C298.4 354 324.8 354 352 354C356.858 331.308 356.858 331.308 360.312 308.5C360.468 307.281 360.623 306.061 360.783 304.805C362.107 293.831 362.47 283.123 363 272C332.97 272 302.94 272 272 272ZM396 272C395.34 279.59 394.68 287.18 394 295C393.409 300.55 392.8 306.086 392.125 311.625C392 312.663 392 312.663 391.873 313.721C390.691 323.479 389.244 333.149 387.219 342.772C386.398 346.676 386 349.969 386 354C409.43 354 432.86 354 457 354C463.357 340.069 463.357 340.069 468.687 325.813C468.969 324.952 469.25 324.092 469.54 323.205C471.603 316.686 473.311 310.108 474.812 303.438C475.007 302.59 475.202 301.742 475.403 300.869C477.435 291.248 478.006 281.942 479 272C451.61 272 424.22 272 396 272ZM76 387C85.4828 405.966 105.163 422.484 122 435C122.558 435.424 123.115 435.848 123.69 436.284C136.371 445.913 150.186 453.282 164.5 460.188C165.319 460.587 166.139 460.986 166.983 461.397C167.741 461.754 168.5 462.112 169.281 462.481C169.952 462.799 170.623 463.118 171.314 463.446C173.09 464.249 173.09 464.249 175 463C174.018 461.759 174.018 461.759 173.016 460.492C162.408 446.752 154.373 431.579 147.187 415.813C146.863 415.103 146.539 414.394 146.205 413.663C142.349 404.932 139.311 395.986 136 387C116.2 387 96.4 387 76 387ZM171 387C178.181 408.544 188.397 428.543 203 446C203.434 446.519 203.868 447.039 204.316 447.574C213.704 458.663 224.474 467.383 238 473C238.66 473 239.32 473 240 473C240 444.62 240 416.24 240 387C217.23 387 194.46 387 171 387ZM272 387C272 415.38 272 443.76 272 473C300.244 463.585 318.133 437.59 331 412C337.677 399.943 337.677 399.943 341 387C318.23 387 295.46 387 272 387ZM376 387C372.7 395.58 369.4 404.16 366 413C358.041 430.565 349.648 448.237 337 463C337.66 463.33 338.32 463.66 339 464C341.542 463.1 341.542 463.1 344.434 461.676C345.548 461.148 346.663 460.62 347.811 460.076C349.021 459.49 350.229 458.902 351.437 458.313C352.351 457.87 352.351 457.87 353.283 457.418C370.781 448.899 386.275 438.718 401 426C401.91 425.22 402.82 424.44 403.758 423.637C406.221 421.471 408.62 419.257 411 417C411.496 416.532 411.991 416.063 412.502 415.581C426.525 402.868 426.525 402.868 436 387C416.2 387 396.4 387 376 387Z" fill="black"/>
</svg>
