<svg width="55" height="37" viewBox="0 0 55 37" fill="none" xmlns="http://www.w3.org/2000/svg">
<path d="M22.3396 0.567384C23.192 0.567384 23.9226 0.876086 24.5314 1.49349C25.0185 2.11089 25.2621 2.85178 25.2621 3.71615C25.2621 4.704 25.0794 5.69185 24.7141 6.67969L15.0335 32.055C14.4247 33.2898 13.8158 34.2777 13.207 35.0186C12.4764 35.8829 11.3196 36.3151 9.73657 36.3151L3.70903 36.3151C2.73488 36.3151 2.00427 35.9447 1.5172 35.2038C0.908356 34.4629 0.725704 33.4751 0.969242 32.2403L4.9876 5.9388C5.10937 4.45703 5.59645 3.16049 6.44883 2.04916C7.30121 1.06131 8.57977 0.567383 10.2845 0.567383L22.3396 0.567384ZM51.564 0.567386C52.4164 0.567387 53.147 0.876089 53.7559 1.49349C54.243 2.1109 54.4865 2.85178 54.4865 3.71616C54.4865 4.70401 54.3038 5.69185 53.9385 6.67969L44.2579 32.055C43.6491 33.2898 42.9794 34.2777 42.2488 35.0186C41.5182 35.8829 40.4222 36.3151 38.961 36.3151H32.9335C31.9593 36.3151 31.2287 35.9447 30.7416 35.2038C30.1328 34.4629 29.9501 33.4751 30.1937 32.2403L34.212 5.93881C34.3338 4.45704 34.8209 3.16049 35.6733 2.04916C36.5256 1.06131 37.7433 0.567385 39.3263 0.567385L51.564 0.567386Z" fill="#0C154B"/>
</svg>
