<svg width="22" height="22" viewBox="0 0 22 22" fill="none" xmlns="http://www.w3.org/2000/svg">
<path d="M21.1943 8.31331L14.2413 1.35948C13.3808 0.501467 12.2152 0.0196533 11 0.0196533C9.78482 0.0196533 8.61921 0.501467 7.75868 1.35948L0.805761 8.31331C0.549484 8.56795 0.3463 8.87092 0.207987 9.20466C0.0696733 9.53841 -0.00101787 9.89629 1.10729e-05 10.2576V19.2565C1.10729e-05 19.9858 0.289742 20.6853 0.805467 21.201C1.32119 21.7167 2.02067 22.0065 2.75001 22.0065H19.25C19.9794 22.0065 20.6788 21.7167 21.1946 21.201C21.7103 20.6853 22 19.9858 22 19.2565V10.2576C22.001 9.89629 21.9303 9.53841 21.792 9.20466C21.6537 8.87092 21.4505 8.56795 21.1943 8.31331ZM13.75 20.1731H8.25001V16.567C8.25001 15.8376 8.53974 15.1382 9.05547 14.6224C9.57119 14.1067 10.2707 13.817 11 13.817C11.7294 13.817 12.4288 14.1067 12.9446 14.6224C13.4603 15.1382 13.75 15.8376 13.75 16.567V20.1731ZM20.1667 19.2565C20.1667 19.4996 20.0701 19.7328 19.8982 19.9047C19.7263 20.0766 19.4931 20.1731 19.25 20.1731H15.5833V16.567C15.5833 15.3514 15.1005 14.1856 14.2409 13.3261C13.3814 12.4665 12.2156 11.9836 11 11.9836C9.78444 11.9836 8.61865 12.4665 7.75911 13.3261C6.89956 14.1856 6.41668 15.3514 6.41668 16.567V20.1731H2.75001C2.5069 20.1731 2.27374 20.0766 2.10183 19.9047C1.92992 19.7328 1.83334 19.4996 1.83334 19.2565V10.2576C1.83419 10.0146 1.93068 9.7818 2.10193 9.60948L9.05485 2.65839C9.57157 2.14408 10.271 1.85534 11 1.85534C11.7291 1.85534 12.4285 2.14408 12.9452 2.65839L19.8981 9.61223C20.0687 9.78387 20.1651 10.0156 20.1667 10.2576V19.2565Z" fill="white"/>
</svg>
