<svg width="34" height="34" viewBox="0 0 34 34" fill="none" xmlns="http://www.w3.org/2000/svg">
<path fill-rule="evenodd" clip-rule="evenodd" d="M17 26C21.9705 26 26 21.9705 26 17C26 12.0294 21.9705 8 17 8C12.0294 8 8 12.0294 8 17C8 21.9705 12.0294 26 17 26ZM17 23C20.3137 23 23 20.3137 23 17C23 13.6863 20.3137 11 17 11C13.6863 11 11 13.6863 11 17C11 20.3137 13.6863 23 17 23Z" fill="black"/>
<path d="M26 6.5C25.1716 6.5 24.5 7.17158 24.5 8C24.5 8.82842 25.1716 9.5 26 9.5C26.8284 9.5 27.5 8.82842 27.5 8C27.5 7.17158 26.8284 6.5 26 6.5Z" fill="black"/>
<path fill-rule="evenodd" clip-rule="evenodd" d="M1.48094 5.41409C0.5 7.3393 0.5 9.85954 0.5 14.9V19.1C0.5 24.1404 0.5 26.6607 1.48094 28.5858C2.3438 30.2794 3.72062 31.6562 5.41409 32.519C7.3393 33.5 9.85954 33.5 14.9 33.5H19.1C24.1404 33.5 26.6607 33.5 28.5858 32.519C30.2794 31.6562 31.6562 30.2794 32.519 28.5858C33.5 26.6607 33.5 24.1404 33.5 19.1V14.9C33.5 9.85954 33.5 7.3393 32.519 5.41409C31.6562 3.72062 30.2794 2.3438 28.5858 1.48094C26.6607 0.5 24.1404 0.5 19.1 0.5H14.9C9.85954 0.5 7.3393 0.5 5.41409 1.48094C3.72062 2.3438 2.3438 3.72062 1.48094 5.41409ZM19.1 3.5H14.9C12.3303 3.5 10.5834 3.50234 9.23312 3.61265C7.91786 3.72011 7.24526 3.91489 6.77606 4.15395C5.64709 4.72921 4.72921 5.64709 4.15395 6.77606C3.91489 7.24526 3.72011 7.91786 3.61265 9.23312C3.50234 10.5834 3.5 12.3303 3.5 14.9V19.1C3.5 21.6698 3.50234 23.4165 3.61265 24.7668C3.72011 26.0822 3.91489 26.7548 4.15395 27.224C4.72921 28.3529 5.64709 29.2707 6.77606 29.846C7.24526 30.0851 7.91786 30.2799 9.23312 30.3874C10.5834 30.4976 12.3303 30.5 14.9 30.5H19.1C21.6698 30.5 23.4165 30.4976 24.7668 30.3874C26.0822 30.2799 26.7548 30.0851 27.224 29.846C28.3529 29.2707 29.2707 28.3529 29.846 27.224C30.0851 26.7548 30.2799 26.0822 30.3874 24.7668C30.4976 23.4165 30.5 21.6698 30.5 19.1V14.9C30.5 12.3303 30.4976 10.5834 30.3874 9.23312C30.2799 7.91786 30.0851 7.24526 29.846 6.77606C29.2707 5.64709 28.3529 4.72921 27.224 4.15395C26.7548 3.91489 26.0822 3.72011 24.7668 3.61265C23.4165 3.50234 21.6698 3.5 19.1 3.5Z" fill="black"/>
</svg>
