<svg width="26" height="30" viewBox="0 0 26 30" fill="none" xmlns="http://www.w3.org/2000/svg">
<path d="M12.9937 0C6.36479 0 0.968567 5.39623 0.968567 12.0252C0.968567 12.7799 1.03775 13.5409 1.1824 14.283C1.18869 14.327 1.21385 14.4591 1.26416 14.6855C1.44655 15.4969 1.71699 16.2956 2.0692 17.0566C3.36479 20.1069 6.21385 24.7925 12.4654 29.8113C12.6227 29.9371 12.8113 30 13 30C13.1887 30 13.3774 29.9371 13.5346 29.8113C19.7799 24.7925 22.6352 20.1069 23.9308 17.0566C24.283 16.2956 24.5535 15.5031 24.7359 14.6855C24.7862 14.4591 24.8113 14.327 24.8176 14.283C24.956 13.5409 25.0315 12.7799 25.0315 12.0252C25.0189 5.39623 19.6227 0 12.9937 0ZM23.1321 13.9874C23.1321 14 23.1258 14.0126 23.1258 14.0252C23.1195 14.0566 23.1006 14.1509 23.0692 14.2956C23.0692 14.3019 23.0692 14.3019 23.0692 14.3082C22.912 15.0126 22.6793 15.6981 22.3711 16.3585C22.3648 16.3648 22.3648 16.3774 22.3585 16.3836C21.1824 19.1698 18.6038 23.4214 12.9937 28.0566C7.38366 23.4214 4.80504 19.1698 3.62894 16.3836C3.62265 16.3774 3.62265 16.3648 3.61637 16.3585C3.31448 15.7044 3.08177 15.0126 2.91825 14.3082C2.91825 14.3019 2.91825 14.3019 2.91825 14.2956C2.88052 14.1509 2.86794 14.0566 2.86165 14.0252C2.86165 14.0126 2.85536 14 2.85536 13.9811C2.72957 13.3333 2.66668 12.6792 2.66668 12.0189C2.66668 6.32704 7.3019 1.69182 12.9937 1.69182C18.6855 1.69182 23.3208 6.32704 23.3208 12.0189C23.3208 12.6855 23.2579 13.3459 23.1321 13.9874Z" fill="black"/>
<path d="M12.9937 4.52197C8.78619 4.52197 5.35852 7.94965 5.35852 12.1572C5.35852 16.3647 8.78619 19.7924 12.9937 19.7924C17.2013 19.7924 20.629 16.3647 20.629 12.1572C20.629 7.94965 17.2013 4.52197 12.9937 4.52197ZM12.9937 18.0943C9.71701 18.0943 7.05663 15.4276 7.05663 12.1572C7.05663 8.88675 9.7233 6.22009 12.9937 6.22009C16.2642 6.22009 18.9308 8.88675 18.9308 12.1572C18.9308 15.4276 16.2705 18.0943 12.9937 18.0943Z" fill="black"/>
</svg>
