<svg width="164" height="163" viewBox="0 0 164 163" fill="none" xmlns="http://www.w3.org/2000/svg">
<path fill-rule="evenodd" clip-rule="evenodd" d="M81.4875 0.0041744C86.51 -0.0298256 89.0383 0.140174 92.5917 0.650174C95.12 1.05817 98.605 1.67017 100.279 2.04417C101.953 2.41817 105.37 3.37017 107.796 4.18617C110.222 5.00217 113.638 6.29417 115.312 7.04217C116.987 7.79017 119.686 9.15016 121.292 10.0002C122.897 10.8842 125.733 12.6182 127.613 13.8422C129.492 15.1002 132.43 17.2422 134.104 18.6362C135.778 20.0302 138.58 22.5801 140.254 24.2801C141.928 25.9801 144.388 28.6661 145.652 30.2301C146.951 31.8281 149.069 34.7181 150.402 36.6901C151.7 38.6621 153.955 42.6401 155.424 45.5301C156.859 48.4201 158.704 52.7041 159.49 55.0501C160.276 57.3961 161.301 60.8981 161.779 62.8701C162.223 64.8421 162.941 68.5481 163.317 71.0981C163.795 74.3281 164 77.5581 164 81.4001C164 85.1741 163.761 88.6081 163.317 91.8381C162.941 94.5241 162.189 98.5361 161.643 100.78C161.096 103.024 160.105 106.39 159.422 108.26C158.773 110.13 157.645 113.054 156.893 114.72C156.142 116.386 154.741 119.242 153.75 121.01C152.759 122.778 151.188 125.396 150.231 126.79C149.308 128.184 147.429 130.734 146.062 132.4C144.73 134.066 142.646 136.514 141.416 137.806C140.22 139.098 137.555 141.614 135.471 143.382C133.387 145.15 129.936 147.768 127.783 149.196C125.631 150.658 122.248 152.664 120.267 153.718C118.285 154.772 114.903 156.336 112.75 157.186C110.598 158.036 107.522 159.124 105.917 159.6C104.311 160.076 101.338 160.858 99.2542 161.3C97.17 161.742 94.095 162.286 92.4208 162.558C90.5758 162.83 86.3733 163 82 163C76.7383 163 73.5267 162.83 70.725 162.422C68.5725 162.082 64.9508 161.368 62.6958 160.824C60.4408 160.28 57.0583 159.294 55.1792 158.614C53.3 157.968 50.3617 156.846 48.6875 156.098C47.0133 155.35 44.1433 153.956 42.3667 152.97C40.59 151.984 37.8225 150.284 36.2167 149.23C34.6108 148.142 32.3217 146.476 31.0917 145.49C29.8617 144.538 27.5725 142.566 26.0008 141.138C24.4292 139.71 21.6617 136.854 19.885 134.78C18.1425 132.706 15.6483 129.51 14.35 127.64C13.0858 125.77 11.275 122.846 10.3183 121.18C9.36167 119.514 7.96083 116.658 7.175 114.89C6.38917 113.122 5.15917 109.994 4.44167 107.92C3.75833 105.846 2.7675 102.514 2.28917 100.44C1.77667 98.3661 1.05917 94.5921 0.683333 92.0081C0.205 88.8121 0 85.6161 0 81.7401C0 77.9661 0.239167 74.5321 0.683333 71.2681C1.05917 68.6161 1.81083 64.6041 2.3575 62.3601C2.90417 60.1161 3.895 56.7501 4.57833 54.8801C5.2275 53.0101 6.38917 50.0181 7.175 48.2501C7.96083 46.4821 9.36167 43.6261 10.3183 41.9601C11.275 40.2941 13.0858 37.3701 14.3842 35.5001C15.6483 33.6301 17.7325 30.8761 18.9967 29.3801C20.2608 27.8841 22.0717 25.8441 23.0283 24.8241C23.985 23.8381 26.445 21.5602 28.5292 19.7922C30.5792 18.0242 33.825 15.5422 35.7042 14.2842C37.5833 12.9922 40.5217 11.1902 42.1958 10.2382C43.87 9.28616 47.0475 7.75617 49.2 6.83817C51.3525 5.92017 54.8033 4.62817 56.8875 3.94817C58.9717 3.30217 62.115 2.41817 63.8917 2.01017C65.6683 1.63617 68.9142 1.02417 71.0667 0.684174C73.7317 0.242174 77.08 0.0381744 81.4875 0.0041744ZM69.0167 12.0402C67.4108 12.3462 64.5067 13.0602 62.525 13.6042C60.5433 14.1822 57.5367 15.1682 55.8625 15.8142C54.1883 16.4602 51.1817 17.8542 49.2 18.9082C47.2183 19.9282 44.3825 21.5942 42.8792 22.5462C41.3758 23.5321 38.9158 25.3001 37.4125 26.5241C35.9433 27.7141 33.3808 29.9921 31.775 31.5901C30.1692 33.1881 27.88 35.7381 26.6842 37.2001C25.4542 38.6961 23.575 41.3141 22.4817 42.9801C21.3542 44.6461 19.475 48.0121 18.245 50.4601C17.0492 52.9081 15.375 56.9541 14.555 59.4701C13.735 61.9861 12.7442 65.6581 12.3342 67.6301C11.9583 69.6021 11.48 72.7981 11.3092 74.7701C11.1042 76.7421 10.9333 79.8021 10.9333 81.5701C10.9333 83.3381 11.1042 86.3981 11.275 88.3701C11.48 90.3421 11.9925 93.7081 12.4367 95.8501C12.8808 97.9921 13.8717 101.664 14.6575 104.01C15.4433 106.356 17.0833 110.266 18.2792 112.68C19.475 115.094 21.3542 118.494 22.4475 120.16C23.575 121.826 25.4542 124.444 26.6842 125.94C27.88 127.402 30.1692 129.952 31.775 131.55C33.3808 133.148 35.9433 135.426 37.4125 136.616C38.9158 137.84 41.5467 139.71 43.2208 140.798C44.895 141.92 48.2775 143.79 50.7375 144.98C53.1975 146.17 56.58 147.632 58.2542 148.21C59.9283 148.788 62.7983 149.638 64.575 150.08C66.3517 150.522 69.29 151.134 71.0667 151.44C72.8433 151.712 76.3967 152.052 78.925 152.188C81.7608 152.29 85.3142 152.222 88.15 151.95C90.6783 151.712 94.4367 151.202 96.5208 150.76C98.605 150.352 102.124 149.366 104.379 148.618C106.634 147.904 110.085 146.51 112.067 145.592C114.048 144.674 117.123 143.008 118.9 141.92C120.677 140.866 123.376 139.03 124.879 137.908C126.382 136.752 129.355 134.134 131.473 132.06C133.626 130.02 136.291 127.13 137.452 125.668C138.614 124.206 140.459 121.656 141.552 120.058C142.646 118.426 144.525 115.094 145.721 112.68C146.917 110.266 148.557 106.356 149.342 104.01C150.128 101.664 151.119 98.0941 151.529 96.0201C151.973 93.9461 152.486 90.2061 152.725 87.6901C152.998 84.8681 153.067 81.3321 152.964 78.5101C152.827 75.9941 152.486 72.4581 152.212 70.6901C151.905 68.9221 151.29 65.9981 150.846 64.2301C150.402 62.4621 149.548 59.6061 148.967 57.9401C148.352 56.2741 147.053 53.2141 146.097 51.1401C145.106 49.0661 143.432 46.0061 142.372 44.3401C141.348 42.6741 139.844 40.4301 139.058 39.4101C138.273 38.3901 136.462 36.1801 135.027 34.5141C133.592 32.8821 130.722 30.0601 128.637 28.2921C126.553 26.4901 123.273 23.9741 121.292 22.6821C119.31 21.3562 115.688 19.3162 113.262 18.1262C110.837 16.9362 106.908 15.3382 104.55 14.5562C102.192 13.7742 98.5025 12.7882 96.35 12.3462C94.1975 11.9042 90.815 11.3942 88.8333 11.1902C86.8517 11.0202 83.4692 10.8502 81.3167 10.8842C79.1642 10.9182 76.1575 11.0542 74.6542 11.2242C73.1508 11.3942 70.6225 11.7682 69.0167 12.0402ZM60.475 38.1521C61.8417 38.2541 65.3267 40.3281 92.5917 57.5661C109.402 68.1741 123.683 77.3881 124.298 78.0341C124.879 78.6801 125.494 79.7001 125.597 80.2781C125.699 80.8901 125.699 81.9781 125.597 82.6581C125.46 83.4401 124.948 84.3921 124.264 85.1061C123.683 85.7521 109.402 94.9661 62.0125 124.92H60.065C58.63 124.92 57.8783 124.75 57.1608 124.206C56.6483 123.798 55.8967 123.05 55.5208 122.574C54.8375 121.656 54.8375 121.044 54.735 82.4881C54.7008 60.9321 54.735 42.8101 54.8375 42.2321C54.94 41.6201 55.3842 40.6341 55.7942 40.0561C56.2383 39.4441 57.1267 38.7641 57.7758 38.5261C58.425 38.2541 59.6208 38.0841 60.475 38.1521ZM65.6 109.79C99.7667 88.2001 109.641 81.7741 109.641 81.6041C109.607 81.4341 99.6983 75.0421 87.5692 67.3581L65.5317 53.3841L65.6 109.79Z" fill="white"/>
</svg>
