<svg width="30" height="30" viewBox="0 0 30 30" fill="none" xmlns="http://www.w3.org/2000/svg">
<path d="M1.80486 8.33637C1.38631 8.45596 1.00624 8.68277 0.702253 8.99435C0.398268 9.30593 0.180908 9.69148 0.0716809 10.1129C-0.0375465 10.5342 -0.0348553 10.9768 0.0794879 11.3969C0.193831 11.8169 0.415863 12.1998 0.723615 12.5076L4.98861 16.7676V25.0001H13.2299L17.5236 29.2876C17.7541 29.5201 18.0282 29.7046 18.3302 29.8308C18.6323 29.9569 18.9563 30.0221 19.2836 30.0226C19.4987 30.0222 19.713 29.9945 19.9211 29.9401C20.3423 29.834 20.7281 29.6188 21.0397 29.3162C21.3513 29.0136 21.5777 28.6343 21.6961 28.2164L29.9886 0.0263672L1.80486 8.33637ZM2.49986 10.7401L23.7849 4.46512L7.49111 20.7326V15.7326L2.49986 10.7401ZM19.2999 27.5201L14.2661 22.5001H9.26611L25.5574 6.22262L19.2999 27.5201Z" fill="white"/>
</svg>
