<svg width="30" height="30" viewBox="0 0 30 30" fill="none" xmlns="http://www.w3.org/2000/svg">
<path d="M25.5159 4.35008C24.1405 2.96525 22.5034 1.86753 20.6998 1.12074C18.8961 0.373952 16.9617 -0.00697212 15.0094 9.6604e-05C12.3994 0.00264659 9.8358 0.690469 7.57544 1.99468C5.31508 3.29888 3.4373 5.17371 2.13009 7.43137C0.82289 9.68905 0.132195 12.2504 0.127129 14.8587C0.122083 17.4672 0.80287 20.031 2.10131 22.2938L0 30L7.87992 27.9375C10.0558 29.1473 12.5008 29.7921 14.9906 29.8125C18.9488 29.8127 22.7467 28.2503 25.5576 25.4655C28.3687 22.681 29.9653 18.8993 30 14.9438C29.9869 12.97 29.5839 11.0182 28.8144 9.20033C28.045 7.38243 26.924 5.7342 25.5159 4.35008ZM15.0094 27.2438C12.7912 27.2453 10.6135 26.6494 8.70544 25.5188L8.25516 25.2375L3.58349 26.475L4.82176 21.9188L4.52158 21.45C2.92542 18.8751 2.32972 15.8044 2.84732 12.8198C3.36492 9.8353 4.95987 7.14412 7.33002 5.25613C9.70019 3.36813 12.6809 2.41445 15.7075 2.57576C18.7341 2.73704 21.5966 4.00212 23.7523 6.13132C26.1088 8.43417 27.4578 11.5754 27.5047 14.8688C27.475 18.1611 26.1454 21.3085 23.8053 23.6262C21.4653 25.9436 18.3039 27.244 15.0094 27.2438ZM21.7824 17.9813C21.4071 17.7938 19.5872 16.8938 19.2495 16.7813C18.9118 16.6688 18.6492 16.5938 18.4053 16.9688C18.0383 17.4715 17.6435 17.9534 17.2233 18.4125C17.0169 18.675 16.7917 18.6938 16.4165 18.4125C14.2771 17.5677 12.4947 16.0114 11.3696 14.0063C10.9756 13.3501 11.7448 13.3876 12.4578 11.9813C12.5105 11.8799 12.5379 11.7674 12.5379 11.6532C12.5379 11.539 12.5105 11.4265 12.4578 11.3251C12.4578 11.1376 11.6135 9.30006 11.3133 8.56881C11.0131 7.83757 10.7129 7.95007 10.469 7.93132H9.73734C9.54775 7.93422 9.36098 7.97755 9.18949 8.05838C9.01801 8.13922 8.86578 8.25571 8.74296 8.40006C8.32199 8.80915 7.99364 9.30366 7.78004 9.85026C7.56644 10.3969 7.47255 10.9829 7.50469 11.5688C7.62233 12.9715 8.1509 14.3084 9.02439 15.4126C10.6233 17.8047 12.8144 19.7425 15.3846 21.0375C16.7326 21.8239 18.2992 22.1528 19.8499 21.975C20.3662 21.8727 20.8553 21.6628 21.2852 21.3591C21.7152 21.0555 22.0764 20.6648 22.3452 20.2125C22.5944 19.6605 22.6728 19.0469 22.5704 18.45C22.4015 18.2625 22.1576 18.1688 21.7824 17.9813Z" fill="black"/>
</svg>
